<?xml version="1.0" encoding="utf-8"?>
<!-- Svg Vector Icons : http://www.onlinewebfonts.com/icon -->
<!DOCTYPE svg PUBLIC "-//W3C//DTD SVG 1.1//EN" "http://www.w3.org/Graphics/SVG/1.1/DTD/svg11.dtd">
<svg version="1.1" xmlns="http://www.w3.org/2000/svg" xmlns:xlink="http://www.w3.org/1999/xlink" x="0px" y="0px" viewBox="0 0 256 256" enable-background="new 0 0 256 256" xml:space="preserve">
<metadata> Svg Vector Icons : http://www.onlinewebfonts.com/icon </metadata>
<g><g><g><path fill="#000000" d="M33.1,10.6c-5.1,1.2-10.4,4.1-14.3,8.1c-9.6,9.6-11.5,24.1-4.5,35.9c1.9,3.3,6.8,8.2,10.1,10.1c8.3,4.9,19.2,5.5,27.2,1.6l2.6-1.3l18.7,18.7l18.7,18.7l-2.8,5.5c-4,7.9-4.7,11.2-4.7,20.1c0,8.9,0.8,12.2,4.7,20.1l2.8,5.5l-5.9,5.9l-5.9,5.9l-3.6-2.1c-19.1-11.1-44.1-5.8-57.4,12.2c-16.3,22-8.9,53.3,15.5,65.7c21.8,11.1,48.3,2.4,59.3-19.4c6.9-13.6,6.4-28.9-1.4-42.3l-2.1-3.6l6-5.9l5.9-6l3.6,2.1c16.1,9.3,35.5,8,49.5-3.3c1.4-1.1,2.8-1.9,3.1-1.8c0.3,0.1,4.4,3.2,9,6.8c4.7,3.6,8.5,6.6,8.6,6.6c0,0-0.2,0.9-0.6,1.9c-2.4,5.7-3.5,13.8-2.5,19.8c1.3,8,4.4,14.2,10.1,20.2c14.6,15.3,38.3,15.2,53-0.2c3.8-4,6.2-7.8,8-12.6c6.4-17.6-1.4-36.8-18.2-45.1c-5.3-2.6-8.5-3.4-14.8-3.7c-10-0.5-19.4,3-26,9.4c-1.8,1.8-1.9,1.9-1.2,0.6c0.7-1.2,0.7-1.5,0-1.9c-15.3-11.7-16.4-12.6-16.1-13.2c3.6-8.7,5-15,4.6-21.5l-0.2-4.2l3.8-1.2c2.1-0.6,6.7-2.1,10.2-3.2l6.4-2.1l3.3,3.3c3.9,3.9,7.9,6.4,12.4,7.8c4.3,1.4,13,1.4,16.8,0.1c5-1.7,8.9-4.1,12.5-7.7c10.5-10.5,11.6-26.7,2.6-38.5c-3.6-4.7-8.3-8-14.4-10.1c-3.2-1.1-4.4-1.3-9-1.3s-5.8,0.2-9,1.3c-4.8,1.7-8.6,4-12,7.5c-5.4,5.6-8.1,11.8-8.3,19.3l-0.1,4.6l-9.3,2.7c-9,2.7-9.3,2.8-9,3.8c0.1,0.6,0.4,2,0.5,3.3l0.2,2.2l-1.1-3.1c-2.4-6.6-7.1-13.1-12.8-17.8c-4.1-3.3-12-7.2-17.5-8.6l-4.4-1.1l-0.3-4.5c-0.2-2.5-0.4-7.9-0.5-12.1l-0.1-7.5l2.9-1.7c9.9-5.8,13.7-18.1,8.9-28.5c-2.7-5.8-8.9-10.7-15.2-12.2c-3.3-0.8-9.3-0.4-12.6,0.9c-5.5,2.1-10.7,7.3-12.8,12.9c-1.3,3.3-1.7,9.2-0.9,12.6c1.5,6.2,6.3,12.3,11.9,14.9c3.5,1.6,3.3,0.8,3.5,15l0.1,10.4l-2.5,0.6c-3.9,1-12.4,5.3-15.2,7.8l-2.5,2.2l1.8-2c0.9-1.2,1.7-2.2,1.7-2.3c0-0.2-8.3-8.5-18.4-18.6L65,54.2l1.1-2.3c4.1-8.7,3.6-19.1-1.3-27.5c-1.9-3.3-6.8-8.2-10.1-10.1C48.3,10.5,39.8,9.1,33.1,10.6z M222.4,86.5c2.9,1.3,6.3,4.7,7.6,7.6c0.8,1.8,1.1,3.2,1.1,6c0,4.4-1.1,7.1-4.3,10.3c-5.6,5.6-14.8,5.6-20.5,0c-3.2-3.2-4.2-5.7-4.2-10.3c0-4.4,1.1-7.3,4.1-10.3C210.4,85.3,216.8,84,222.4,86.5z M61.3,173.9c8.1,2.1,15.5,8,19.1,15.4c3.5,7.3,4.1,14.9,1.8,22.2c-1.8,5.1-3.3,7.7-7.4,11.8c-5.9,5.9-12.5,8.6-20.6,8.6c-5,0-8-0.7-12.8-3c-6.9-3.3-12.5-9.5-15-16.9c-3.7-10.7-1-22.1,7-30.1c6.1-6,12.2-8.6,20.5-8.7C56.6,173.2,59.6,173.5,61.3,173.9z"/></g></g></g>
</svg>